<?xml version="1.0" standalone="no"?>
<!DOCTYPE svg PUBLIC "-//W3C//DTD SVG 1.1//EN"
  "http://www.w3.org/Graphics/SVG/1.1/DTD/svg11.dtd">
<svg width="301" height="196" version="1.1"
  xmlns="http://www.w3.org/2000/svg">
<rect x="1" y="1" width="9" height="2" rx="0" ry="0" style="stroke-width:2;fill:black;"/><rect x="1" y="21" width="9" height="2" rx="0" ry="0" style="stroke-width:2;fill:black;"/><rect x="1" y="33" width="9" height="2" rx="0" ry="0" style="stroke-width:2;fill:black;"/><rect x="1" y="45" width="9" height="2" rx="0" ry="0" style="stroke-width:2;fill:black;"/><rect x="1" y="49" width="9" height="2" rx="0" ry="0" style="stroke-width:2;fill:black;"/><rect x="1" y="61" width="9" height="2" rx="0" ry="0" style="stroke-width:2;fill:black;"/><rect x="1" y="81" width="9" height="2" rx="0" ry="0" style="stroke-width:2;fill:black;"/><rect x="1" y="93" width="9" height="2" rx="0" ry="0" style="stroke-width:2;fill:black;"/><rect x="1" y="105" width="9" height="2" rx="0" ry="0" style="stroke-width:2;fill:black;"/><rect x="1" y="109" width="9" height="2" rx="0" ry="0" style="stroke-width:2;fill:black;"/><rect x="1" y="121" width="9" height="2" rx="0" ry="0" style="stroke-width:2;fill:black;"/><rect x="1" y="133" width="9" height="2" rx="0" ry="0" style="stroke-width:2;fill:black;"/><rect x="1" y="141" width="9" height="2" rx="0" ry="0" style="stroke-width:2;fill:black;"/><rect x="1" y="145" width="9" height="2" rx="0" ry="0" style="stroke-width:2;fill:black;"/><rect x="1" y="169" width="9" height="2" rx="0" ry="0" style="stroke-width:2;fill:black;"/><rect x="1" y="189" width="9" height="2" rx="0" ry="0" style="stroke-width:2;fill:black;"/><rect x="1" y="193" width="9" height="2" rx="0" ry="0" style="stroke-width:2;fill:black;"/><rect x="11" y="1" width="9" height="2" rx="0" ry="0" style="stroke-width:2;fill:black;"/><rect x="11" y="13" width="9" height="2" rx="0" ry="0" style="stroke-width:2;fill:black;"/><rect x="11" y="25" width="9" height="2" rx="0" ry="0" style="stroke-width:2;fill:black;"/><rect x="11" y="29" width="9" height="2" rx="0" ry="0" style="stroke-width:2;fill:black;"/><rect x="11" y="53" width="9" height="2" rx="0" ry="0" style="stroke-width:2;fill:black;"/><rect x="11" y="61" width="9" height="2" rx="0" ry="0" style="stroke-width:2;fill:black;"/><rect x="11" y="73" width="9" height="2" rx="0" ry="0" style="stroke-width:2;fill:black;"/><rect x="11" y="89" width="9" height="2" rx="0" ry="0" style="stroke-width:2;fill:black;"/><rect x="11" y="109" width="9" height="2" rx="0" ry="0" style="stroke-width:2;fill:black;"/><rect x="11" y="125" width="9" height="2" rx="0" ry="0" style="stroke-width:2;fill:black;"/><rect x="11" y="145" width="9" height="2" rx="0" ry="0" style="stroke-width:2;fill:black;"/><rect x="11" y="161" width="9" height="2" rx="0" ry="0" style="stroke-width:2;fill:black;"/><rect x="11" y="173" width="9" height="2" rx="0" ry="0" style="stroke-width:2;fill:black;"/><rect x="11" y="185" width="9" height="2" rx="0" ry="0" style="stroke-width:2;fill:black;"/><rect x="11" y="193" width="9" height="2" rx="0" ry="0" style="stroke-width:2;fill:black;"/><rect x="21" y="9" width="9" height="2" rx="0" ry="0" style="stroke-width:2;fill:black;"/><rect x="21" y="21" width="9" height="2" rx="0" ry="0" style="stroke-width:2;fill:black;"/><rect x="21" y="29" width="9" height="2" rx="0" ry="0" style="stroke-width:2;fill:black;"/><rect x="21" y="45" width="9" height="2" rx="0" ry="0" style="stroke-width:2;fill:black;"/><rect x="21" y="53" width="9" height="2" rx="0" ry="0" style="stroke-width:2;fill:black;"/><rect x="21" y="81" width="9" height="2" rx="0" ry="0" style="stroke-width:2;fill:black;"/><rect x="21" y="101" width="9" height="2" rx="0" ry="0" style="stroke-width:2;fill:black;"/><rect x="21" y="125" width="9" height="2" rx="0" ry="0" style="stroke-width:2;fill:black;"/><rect x="21" y="129" width="9" height="2" rx="0" ry="0" style="stroke-width:2;fill:black;"/><rect x="21" y="149" width="9" height="2" rx="0" ry="0" style="stroke-width:2;fill:black;"/><rect x="21" y="153" width="9" height="2" rx="0" ry="0" style="stroke-width:2;fill:black;"/><rect x="21" y="161" width="9" height="2" rx="0" ry="0" style="stroke-width:2;fill:black;"/><rect x="21" y="165" width="9" height="2" rx="0" ry="0" style="stroke-width:2;fill:black;"/><rect x="21" y="185" width="9" height="2" rx="0" ry="0" style="stroke-width:2;fill:black;"/><rect x="31" y="13" width="9" height="2" rx="0" ry="0" style="stroke-width:2;fill:black;"/><rect x="31" y="21" width="9" height="2" rx="0" ry="0" style="stroke-width:2;fill:black;"/><rect x="31" y="25" width="9" height="2" rx="0" ry="0" style="stroke-width:2;fill:black;"/><rect x="31" y="33" width="9" height="2" rx="0" ry="0" style="stroke-width:2;fill:black;"/><rect x="31" y="61" width="9" height="2" rx="0" ry="0" style="stroke-width:2;fill:black;"/><rect x="31" y="69" width="9" height="2" rx="0" ry="0" style="stroke-width:2;fill:black;"/><rect x="31" y="73" width="9" height="2" rx="0" ry="0" style="stroke-width:2;fill:black;"/><rect x="31" y="81" width="9" height="2" rx="0" ry="0" style="stroke-width:2;fill:black;"/><rect x="31" y="121" width="9" height="2" rx="0" ry="0" style="stroke-width:2;fill:black;"/><rect x="31" y="129" width="9" height="2" rx="0" ry="0" style="stroke-width:2;fill:black;"/><rect x="31" y="145" width="9" height="2" rx="0" ry="0" style="stroke-width:2;fill:black;"/><rect x="31" y="165" width="9" height="2" rx="0" ry="0" style="stroke-width:2;fill:black;"/><rect x="31" y="181" width="9" height="2" rx="0" ry="0" style="stroke-width:2;fill:black;"/><rect x="31" y="189" width="9" height="2" rx="0" ry="0" style="stroke-width:2;fill:black;"/><rect x="41" y="1" width="9" height="2" rx="0" ry="0" style="stroke-width:2;fill:black;"/><rect x="41" y="13" width="9" height="2" rx="0" ry="0" style="stroke-width:2;fill:black;"/><rect x="41" y="41" width="9" height="2" rx="0" ry="0" style="stroke-width:2;fill:black;"/><rect x="41" y="49" width="9" height="2" rx="0" ry="0" style="stroke-width:2;fill:black;"/><rect x="41" y="61" width="9" height="2" rx="0" ry="0" style="stroke-width:2;fill:black;"/><rect x="41" y="73" width="9" height="2" rx="0" ry="0" style="stroke-width:2;fill:black;"/><rect x="41" y="89" width="9" height="2" rx="0" ry="0" style="stroke-width:2;fill:black;"/><rect x="41" y="101" width="9" height="2" rx="0" ry="0" style="stroke-width:2;fill:black;"/><rect x="41" y="125" width="9" height="2" rx="0" ry="0" style="stroke-width:2;fill:black;"/><rect x="41" y="133" width="9" height="2" rx="0" ry="0" style="stroke-width:2;fill:black;"/><rect x="41" y="145" width="9" height="2" rx="0" ry="0" style="stroke-width:2;fill:black;"/><rect x="41" y="149" width="9" height="2" rx="0" ry="0" style="stroke-width:2;fill:black;"/><rect x="41" y="169" width="9" height="2" rx="0" ry="0" style="stroke-width:2;fill:black;"/><rect x="41" y="173" width="9" height="2" rx="0" ry="0" style="stroke-width:2;fill:black;"/><rect x="41" y="185" width="9" height="2" rx="0" ry="0" style="stroke-width:2;fill:black;"/><rect x="51" y="5" width="9" height="2" rx="0" ry="0" style="stroke-width:2;fill:black;"/><rect x="51" y="9" width="9" height="2" rx="0" ry="0" style="stroke-width:2;fill:black;"/><rect x="51" y="29" width="9" height="2" rx="0" ry="0" style="stroke-width:2;fill:black;"/><rect x="51" y="33" width="9" height="2" rx="0" ry="0" style="stroke-width:2;fill:black;"/><rect x="51" y="45" width="9" height="2" rx="0" ry="0" style="stroke-width:2;fill:black;"/><rect x="51" y="81" width="9" height="2" rx="0" ry="0" style="stroke-width:2;fill:black;"/><rect x="51" y="89" width="9" height="2" rx="0" ry="0" style="stroke-width:2;fill:black;"/><rect x="51" y="93" width="9" height="2" rx="0" ry="0" style="stroke-width:2;fill:black;"/><rect x="51" y="101" width="9" height="2" rx="0" ry="0" style="stroke-width:2;fill:black;"/><rect x="51" y="113" width="9" height="2" rx="0" ry="0" style="stroke-width:2;fill:black;"/><rect x="51" y="125" width="9" height="2" rx="0" ry="0" style="stroke-width:2;fill:black;"/><rect x="51" y="141" width="9" height="2" rx="0" ry="0" style="stroke-width:2;fill:black;"/><rect x="51" y="153" width="9" height="2" rx="0" ry="0" style="stroke-width:2;fill:black;"/><rect x="51" y="165" width="9" height="2" rx="0" ry="0" style="stroke-width:2;fill:black;"/><rect x="61" y="9" width="9" height="2" rx="0" ry="0" style="stroke-width:2;fill:black;"/><rect x="61" y="13" width="9" height="2" rx="0" ry="0" style="stroke-width:2;fill:black;"/><rect x="61" y="33" width="9" height="2" rx="0" ry="0" style="stroke-width:2;fill:black;"/><rect x="61" y="49" width="9" height="2" rx="0" ry="0" style="stroke-width:2;fill:black;"/><rect x="61" y="69" width="9" height="2" rx="0" ry="0" style="stroke-width:2;fill:black;"/><rect x="61" y="81" width="9" height="2" rx="0" ry="0" style="stroke-width:2;fill:black;"/><rect x="61" y="93" width="9" height="2" rx="0" ry="0" style="stroke-width:2;fill:black;"/><rect x="61" y="109" width="9" height="2" rx="0" ry="0" style="stroke-width:2;fill:black;"/><rect x="61" y="133" width="9" height="2" rx="0" ry="0" style="stroke-width:2;fill:black;"/><rect x="61" y="141" width="9" height="2" rx="0" ry="0" style="stroke-width:2;fill:black;"/><rect x="61" y="153" width="9" height="2" rx="0" ry="0" style="stroke-width:2;fill:black;"/><rect x="61" y="165" width="9" height="2" rx="0" ry="0" style="stroke-width:2;fill:black;"/><rect x="61" y="169" width="9" height="2" rx="0" ry="0" style="stroke-width:2;fill:black;"/><rect x="61" y="181" width="9" height="2" rx="0" ry="0" style="stroke-width:2;fill:black;"/><rect x="71" y="5" width="9" height="2" rx="0" ry="0" style="stroke-width:2;fill:black;"/><rect x="71" y="25" width="9" height="2" rx="0" ry="0" style="stroke-width:2;fill:black;"/><rect x="71" y="61" width="9" height="2" rx="0" ry="0" style="stroke-width:2;fill:black;"/><rect x="71" y="65" width="9" height="2" rx="0" ry="0" style="stroke-width:2;fill:black;"/><rect x="71" y="73" width="9" height="2" rx="0" ry="0" style="stroke-width:2;fill:black;"/><rect x="71" y="85" width="9" height="2" rx="0" ry="0" style="stroke-width:2;fill:black;"/><rect x="71" y="89" width="9" height="2" rx="0" ry="0" style="stroke-width:2;fill:black;"/><rect x="71" y="101" width="9" height="2" rx="0" ry="0" style="stroke-width:2;fill:black;"/><rect x="71" y="109" width="9" height="2" rx="0" ry="0" style="stroke-width:2;fill:black;"/><rect x="71" y="113" width="9" height="2" rx="0" ry="0" style="stroke-width:2;fill:black;"/><rect x="71" y="121" width="9" height="2" rx="0" ry="0" style="stroke-width:2;fill:black;"/><rect x="71" y="145" width="9" height="2" rx="0" ry="0" style="stroke-width:2;fill:black;"/><rect x="71" y="149" width="9" height="2" rx="0" ry="0" style="stroke-width:2;fill:black;"/><rect x="71" y="161" width="9" height="2" rx="0" ry="0" style="stroke-width:2;fill:black;"/><rect x="81" y="29" width="9" height="2" rx="0" ry="0" style="stroke-width:2;fill:black;"/><rect x="81" y="41" width="9" height="2" rx="0" ry="0" style="stroke-width:2;fill:black;"/><rect x="81" y="53" width="9" height="2" rx="0" ry="0" style="stroke-width:2;fill:black;"/><rect x="81" y="69" width="9" height="2" rx="0" ry="0" style="stroke-width:2;fill:black;"/><rect x="81" y="105" width="9" height="2" rx="0" ry="0" style="stroke-width:2;fill:black;"/><rect x="81" y="125" width="9" height="2" rx="0" ry="0" style="stroke-width:2;fill:black;"/><rect x="81" y="153" width="9" height="2" rx="0" ry="0" style="stroke-width:2;fill:black;"/><rect x="81" y="161" width="9" height="2" rx="0" ry="0" style="stroke-width:2;fill:black;"/><rect x="81" y="165" width="9" height="2" rx="0" ry="0" style="stroke-width:2;fill:black;"/><rect x="81" y="173" width="9" height="2" rx="0" ry="0" style="stroke-width:2;fill:black;"/><rect x="81" y="185" width="9" height="2" rx="0" ry="0" style="stroke-width:2;fill:black;"/><rect x="91" y="1" width="9" height="2" rx="0" ry="0" style="stroke-width:2;fill:black;"/><rect x="91" y="9" width="9" height="2" rx="0" ry="0" style="stroke-width:2;fill:black;"/><rect x="91" y="13" width="9" height="2" rx="0" ry="0" style="stroke-width:2;fill:black;"/><rect x="91" y="25" width="9" height="2" rx="0" ry="0" style="stroke-width:2;fill:black;"/><rect x="91" y="49" width="9" height="2" rx="0" ry="0" style="stroke-width:2;fill:black;"/><rect x="91" y="69" width="9" height="2" rx="0" ry="0" style="stroke-width:2;fill:black;"/><rect x="91" y="73" width="9" height="2" rx="0" ry="0" style="stroke-width:2;fill:black;"/><rect x="91" y="81" width="9" height="2" rx="0" ry="0" style="stroke-width:2;fill:black;"/><rect x="91" y="85" width="9" height="2" rx="0" ry="0" style="stroke-width:2;fill:black;"/><rect x="91" y="93" width="9" height="2" rx="0" ry="0" style="stroke-width:2;fill:black;"/><rect x="91" y="105" width="9" height="2" rx="0" ry="0" style="stroke-width:2;fill:black;"/><rect x="91" y="129" width="9" height="2" rx="0" ry="0" style="stroke-width:2;fill:black;"/><rect x="91" y="153" width="9" height="2" rx="0" ry="0" style="stroke-width:2;fill:black;"/><rect x="91" y="169" width="9" height="2" rx="0" ry="0" style="stroke-width:2;fill:black;"/><rect x="91" y="193" width="9" height="2" rx="0" ry="0" style="stroke-width:2;fill:black;"/><rect x="101" y="5" width="9" height="2" rx="0" ry="0" style="stroke-width:2;fill:black;"/><rect x="101" y="13" width="9" height="2" rx="0" ry="0" style="stroke-width:2;fill:black;"/><rect x="101" y="25" width="9" height="2" rx="0" ry="0" style="stroke-width:2;fill:black;"/><rect x="101" y="41" width="9" height="2" rx="0" ry="0" style="stroke-width:2;fill:black;"/><rect x="101" y="49" width="9" height="2" rx="0" ry="0" style="stroke-width:2;fill:black;"/><rect x="101" y="65" width="9" height="2" rx="0" ry="0" style="stroke-width:2;fill:black;"/><rect x="101" y="73" width="9" height="2" rx="0" ry="0" style="stroke-width:2;fill:black;"/><rect x="101" y="101" width="9" height="2" rx="0" ry="0" style="stroke-width:2;fill:black;"/><rect x="101" y="109" width="9" height="2" rx="0" ry="0" style="stroke-width:2;fill:black;"/><rect x="101" y="121" width="9" height="2" rx="0" ry="0" style="stroke-width:2;fill:black;"/><rect x="101" y="125" width="9" height="2" rx="0" ry="0" style="stroke-width:2;fill:black;"/><rect x="101" y="133" width="9" height="2" rx="0" ry="0" style="stroke-width:2;fill:black;"/><rect x="101" y="145" width="9" height="2" rx="0" ry="0" style="stroke-width:2;fill:black;"/><rect x="101" y="149" width="9" height="2" rx="0" ry="0" style="stroke-width:2;fill:black;"/><rect x="101" y="161" width="9" height="2" rx="0" ry="0" style="stroke-width:2;fill:black;"/><rect x="101" y="181" width="9" height="2" rx="0" ry="0" style="stroke-width:2;fill:black;"/><rect x="111" y="21" width="9" height="2" rx="0" ry="0" style="stroke-width:2;fill:black;"/><rect x="111" y="33" width="9" height="2" rx="0" ry="0" style="stroke-width:2;fill:black;"/><rect x="111" y="41" width="9" height="2" rx="0" ry="0" style="stroke-width:2;fill:black;"/><rect x="111" y="45" width="9" height="2" rx="0" ry="0" style="stroke-width:2;fill:black;"/><rect x="111" y="93" width="9" height="2" rx="0" ry="0" style="stroke-width:2;fill:black;"/><rect x="111" y="101" width="9" height="2" rx="0" ry="0" style="stroke-width:2;fill:black;"/><rect x="111" y="105" width="9" height="2" rx="0" ry="0" style="stroke-width:2;fill:black;"/><rect x="111" y="125" width="9" height="2" rx="0" ry="0" style="stroke-width:2;fill:black;"/><rect x="111" y="149" width="9" height="2" rx="0" ry="0" style="stroke-width:2;fill:black;"/><rect x="111" y="153" width="9" height="2" rx="0" ry="0" style="stroke-width:2;fill:black;"/><rect x="111" y="173" width="9" height="2" rx="0" ry="0" style="stroke-width:2;fill:black;"/><rect x="111" y="189" width="9" height="2" rx="0" ry="0" style="stroke-width:2;fill:black;"/><rect x="121" y="1" width="9" height="2" rx="0" ry="0" style="stroke-width:2;fill:black;"/><rect x="121" y="13" width="9" height="2" rx="0" ry="0" style="stroke-width:2;fill:black;"/><rect x="121" y="25" width="9" height="2" rx="0" ry="0" style="stroke-width:2;fill:black;"/><rect x="121" y="61" width="9" height="2" rx="0" ry="0" style="stroke-width:2;fill:black;"/><rect x="121" y="73" width="9" height="2" rx="0" ry="0" style="stroke-width:2;fill:black;"/><rect x="121" y="81" width="9" height="2" rx="0" ry="0" style="stroke-width:2;fill:black;"/><rect x="121" y="85" width="9" height="2" rx="0" ry="0" style="stroke-width:2;fill:black;"/><rect x="121" y="109" width="9" height="2" rx="0" ry="0" style="stroke-width:2;fill:black;"/><rect x="121" y="129" width="9" height="2" rx="0" ry="0" style="stroke-width:2;fill:black;"/><rect x="121" y="153" width="9" height="2" rx="0" ry="0" style="stroke-width:2;fill:black;"/><rect x="121" y="169" width="9" height="2" rx="0" ry="0" style="stroke-width:2;fill:black;"/><rect x="131" y="1" width="9" height="2" rx="0" ry="0" style="stroke-width:2;fill:black;"/><rect x="131" y="29" width="9" height="2" rx="0" ry="0" style="stroke-width:2;fill:black;"/><rect x="131" y="41" width="9" height="2" rx="0" ry="0" style="stroke-width:2;fill:black;"/><rect x="131" y="49" width="9" height="2" rx="0" ry="0" style="stroke-width:2;fill:black;"/><rect x="131" y="53" width="9" height="2" rx="0" ry="0" style="stroke-width:2;fill:black;"/><rect x="131" y="61" width="9" height="2" rx="0" ry="0" style="stroke-width:2;fill:black;"/><rect x="131" y="65" width="9" height="2" rx="0" ry="0" style="stroke-width:2;fill:black;"/><rect x="131" y="85" width="9" height="2" rx="0" ry="0" style="stroke-width:2;fill:black;"/><rect x="131" y="109" width="9" height="2" rx="0" ry="0" style="stroke-width:2;fill:black;"/><rect x="131" y="121" width="9" height="2" rx="0" ry="0" style="stroke-width:2;fill:black;"/><rect x="131" y="133" width="9" height="2" rx="0" ry="0" style="stroke-width:2;fill:black;"/><rect x="131" y="169" width="9" height="2" rx="0" ry="0" style="stroke-width:2;fill:black;"/><rect x="131" y="173" width="9" height="2" rx="0" ry="0" style="stroke-width:2;fill:black;"/><rect x="141" y="5" width="9" height="2" rx="0" ry="0" style="stroke-width:2;fill:black;"/><rect x="141" y="9" width="9" height="2" rx="0" ry="0" style="stroke-width:2;fill:black;"/><rect x="141" y="53" width="9" height="2" rx="0" ry="0" style="stroke-width:2;fill:black;"/><rect x="141" y="65" width="9" height="2" rx="0" ry="0" style="stroke-width:2;fill:black;"/><rect x="141" y="81" width="9" height="2" rx="0" ry="0" style="stroke-width:2;fill:black;"/><rect x="141" y="93" width="9" height="2" rx="0" ry="0" style="stroke-width:2;fill:black;"/><rect x="141" y="101" width="9" height="2" rx="0" ry="0" style="stroke-width:2;fill:black;"/><rect x="141" y="105" width="9" height="2" rx="0" ry="0" style="stroke-width:2;fill:black;"/><rect x="141" y="113" width="9" height="2" rx="0" ry="0" style="stroke-width:2;fill:black;"/><rect x="141" y="129" width="9" height="2" rx="0" ry="0" style="stroke-width:2;fill:black;"/><rect x="141" y="141" width="9" height="2" rx="0" ry="0" style="stroke-width:2;fill:black;"/><rect x="141" y="161" width="9" height="2" rx="0" ry="0" style="stroke-width:2;fill:black;"/><rect x="141" y="165" width="9" height="2" rx="0" ry="0" style="stroke-width:2;fill:black;"/><rect x="141" y="185" width="9" height="2" rx="0" ry="0" style="stroke-width:2;fill:black;"/><rect x="151" y="13" width="9" height="2" rx="0" ry="0" style="stroke-width:2;fill:black;"/><rect x="151" y="33" width="9" height="2" rx="0" ry="0" style="stroke-width:2;fill:black;"/><rect x="151" y="45" width="9" height="2" rx="0" ry="0" style="stroke-width:2;fill:black;"/><rect x="151" y="69" width="9" height="2" rx="0" ry="0" style="stroke-width:2;fill:black;"/><rect x="151" y="73" width="9" height="2" rx="0" ry="0" style="stroke-width:2;fill:black;"/><rect x="151" y="81" width="9" height="2" rx="0" ry="0" style="stroke-width:2;fill:black;"/><rect x="151" y="85" width="9" height="2" rx="0" ry="0" style="stroke-width:2;fill:black;"/><rect x="151" y="105" width="9" height="2" rx="0" ry="0" style="stroke-width:2;fill:black;"/><rect x="151" y="129" width="9" height="2" rx="0" ry="0" style="stroke-width:2;fill:black;"/><rect x="151" y="133" width="9" height="2" rx="0" ry="0" style="stroke-width:2;fill:black;"/><rect x="151" y="165" width="9" height="2" rx="0" ry="0" style="stroke-width:2;fill:black;"/><rect x="151" y="169" width="9" height="2" rx="0" ry="0" style="stroke-width:2;fill:black;"/><rect x="151" y="181" width="9" height="2" rx="0" ry="0" style="stroke-width:2;fill:black;"/><rect x="151" y="189" width="9" height="2" rx="0" ry="0" style="stroke-width:2;fill:black;"/><rect x="151" y="193" width="9" height="2" rx="0" ry="0" style="stroke-width:2;fill:black;"/><rect x="161" y="13" width="9" height="2" rx="0" ry="0" style="stroke-width:2;fill:black;"/><rect x="161" y="29" width="9" height="2" rx="0" ry="0" style="stroke-width:2;fill:black;"/><rect x="161" y="65" width="9" height="2" rx="0" ry="0" style="stroke-width:2;fill:black;"/><rect x="161" y="113" width="9" height="2" rx="0" ry="0" style="stroke-width:2;fill:black;"/><rect x="161" y="121" width="9" height="2" rx="0" ry="0" style="stroke-width:2;fill:black;"/><rect x="161" y="133" width="9" height="2" rx="0" ry="0" style="stroke-width:2;fill:black;"/><rect x="161" y="149" width="9" height="2" rx="0" ry="0" style="stroke-width:2;fill:black;"/><rect x="161" y="181" width="9" height="2" rx="0" ry="0" style="stroke-width:2;fill:black;"/><rect x="161" y="185" width="9" height="2" rx="0" ry="0" style="stroke-width:2;fill:black;"/><rect x="161" y="193" width="9" height="2" rx="0" ry="0" style="stroke-width:2;fill:black;"/><rect x="171" y="9" width="9" height="2" rx="0" ry="0" style="stroke-width:2;fill:black;"/><rect x="171" y="41" width="9" height="2" rx="0" ry="0" style="stroke-width:2;fill:black;"/><rect x="171" y="45" width="9" height="2" rx="0" ry="0" style="stroke-width:2;fill:black;"/><rect x="171" y="53" width="9" height="2" rx="0" ry="0" style="stroke-width:2;fill:black;"/><rect x="171" y="69" width="9" height="2" rx="0" ry="0" style="stroke-width:2;fill:black;"/><rect x="171" y="81" width="9" height="2" rx="0" ry="0" style="stroke-width:2;fill:black;"/><rect x="171" y="93" width="9" height="2" rx="0" ry="0" style="stroke-width:2;fill:black;"/><rect x="171" y="101" width="9" height="2" rx="0" ry="0" style="stroke-width:2;fill:black;"/><rect x="171" y="125" width="9" height="2" rx="0" ry="0" style="stroke-width:2;fill:black;"/><rect x="171" y="129" width="9" height="2" rx="0" ry="0" style="stroke-width:2;fill:black;"/><rect x="171" y="173" width="9" height="2" rx="0" ry="0" style="stroke-width:2;fill:black;"/><rect x="171" y="185" width="9" height="2" rx="0" ry="0" style="stroke-width:2;fill:black;"/><rect x="171" y="189" width="9" height="2" rx="0" ry="0" style="stroke-width:2;fill:black;"/><rect x="181" y="1" width="9" height="2" rx="0" ry="0" style="stroke-width:2;fill:black;"/><rect x="181" y="9" width="9" height="2" rx="0" ry="0" style="stroke-width:2;fill:black;"/><rect x="181" y="21" width="9" height="2" rx="0" ry="0" style="stroke-width:2;fill:black;"/><rect x="181" y="49" width="9" height="2" rx="0" ry="0" style="stroke-width:2;fill:black;"/><rect x="181" y="61" width="9" height="2" rx="0" ry="0" style="stroke-width:2;fill:black;"/><rect x="181" y="69" width="9" height="2" rx="0" ry="0" style="stroke-width:2;fill:black;"/><rect x="181" y="73" width="9" height="2" rx="0" ry="0" style="stroke-width:2;fill:black;"/><rect x="181" y="85" width="9" height="2" rx="0" ry="0" style="stroke-width:2;fill:black;"/><rect x="181" y="93" width="9" height="2" rx="0" ry="0" style="stroke-width:2;fill:black;"/><rect x="181" y="105" width="9" height="2" rx="0" ry="0" style="stroke-width:2;fill:black;"/><rect x="181" y="129" width="9" height="2" rx="0" ry="0" style="stroke-width:2;fill:black;"/><rect x="181" y="141" width="9" height="2" rx="0" ry="0" style="stroke-width:2;fill:black;"/><rect x="181" y="153" width="9" height="2" rx="0" ry="0" style="stroke-width:2;fill:black;"/><rect x="181" y="181" width="9" height="2" rx="0" ry="0" style="stroke-width:2;fill:black;"/><rect x="181" y="189" width="9" height="2" rx="0" ry="0" style="stroke-width:2;fill:black;"/><rect x="191" y="1" width="9" height="2" rx="0" ry="0" style="stroke-width:2;fill:black;"/><rect x="191" y="25" width="9" height="2" rx="0" ry="0" style="stroke-width:2;fill:black;"/><rect x="191" y="41" width="9" height="2" rx="0" ry="0" style="stroke-width:2;fill:black;"/><rect x="191" y="53" width="9" height="2" rx="0" ry="0" style="stroke-width:2;fill:black;"/><rect x="191" y="61" width="9" height="2" rx="0" ry="0" style="stroke-width:2;fill:black;"/><rect x="191" y="113" width="9" height="2" rx="0" ry="0" style="stroke-width:2;fill:black;"/><rect x="191" y="149" width="9" height="2" rx="0" ry="0" style="stroke-width:2;fill:black;"/><rect x="191" y="169" width="9" height="2" rx="0" ry="0" style="stroke-width:2;fill:black;"/><rect x="191" y="185" width="9" height="2" rx="0" ry="0" style="stroke-width:2;fill:black;"/><rect x="191" y="193" width="9" height="2" rx="0" ry="0" style="stroke-width:2;fill:black;"/><rect x="201" y="5" width="9" height="2" rx="0" ry="0" style="stroke-width:2;fill:black;"/><rect x="201" y="9" width="9" height="2" rx="0" ry="0" style="stroke-width:2;fill:black;"/><rect x="201" y="21" width="9" height="2" rx="0" ry="0" style="stroke-width:2;fill:black;"/><rect x="201" y="65" width="9" height="2" rx="0" ry="0" style="stroke-width:2;fill:black;"/><rect x="201" y="89" width="9" height="2" rx="0" ry="0" style="stroke-width:2;fill:black;"/><rect x="201" y="93" width="9" height="2" rx="0" ry="0" style="stroke-width:2;fill:black;"/><rect x="201" y="125" width="9" height="2" rx="0" ry="0" style="stroke-width:2;fill:black;"/><rect x="201" y="141" width="9" height="2" rx="0" ry="0" style="stroke-width:2;fill:black;"/><rect x="201" y="149" width="9" height="2" rx="0" ry="0" style="stroke-width:2;fill:black;"/><rect x="201" y="173" width="9" height="2" rx="0" ry="0" style="stroke-width:2;fill:black;"/><rect x="211" y="1" width="9" height="2" rx="0" ry="0" style="stroke-width:2;fill:black;"/><rect x="211" y="21" width="9" height="2" rx="0" ry="0" style="stroke-width:2;fill:black;"/><rect x="211" y="25" width="9" height="2" rx="0" ry="0" style="stroke-width:2;fill:black;"/><rect x="211" y="33" width="9" height="2" rx="0" ry="0" style="stroke-width:2;fill:black;"/><rect x="211" y="49" width="9" height="2" rx="0" ry="0" style="stroke-width:2;fill:black;"/><rect x="211" y="61" width="9" height="2" rx="0" ry="0" style="stroke-width:2;fill:black;"/><rect x="211" y="73" width="9" height="2" rx="0" ry="0" style="stroke-width:2;fill:black;"/><rect x="211" y="81" width="9" height="2" rx="0" ry="0" style="stroke-width:2;fill:black;"/><rect x="211" y="85" width="9" height="2" rx="0" ry="0" style="stroke-width:2;fill:black;"/><rect x="211" y="93" width="9" height="2" rx="0" ry="0" style="stroke-width:2;fill:black;"/><rect x="211" y="105" width="9" height="2" rx="0" ry="0" style="stroke-width:2;fill:black;"/><rect x="211" y="121" width="9" height="2" rx="0" ry="0" style="stroke-width:2;fill:black;"/><rect x="211" y="129" width="9" height="2" rx="0" ry="0" style="stroke-width:2;fill:black;"/><rect x="211" y="133" width="9" height="2" rx="0" ry="0" style="stroke-width:2;fill:black;"/><rect x="211" y="145" width="9" height="2" rx="0" ry="0" style="stroke-width:2;fill:black;"/><rect x="211" y="165" width="9" height="2" rx="0" ry="0" style="stroke-width:2;fill:black;"/><rect x="211" y="169" width="9" height="2" rx="0" ry="0" style="stroke-width:2;fill:black;"/><rect x="211" y="189" width="9" height="2" rx="0" ry="0" style="stroke-width:2;fill:black;"/><rect x="221" y="5" width="9" height="2" rx="0" ry="0" style="stroke-width:2;fill:black;"/><rect x="221" y="13" width="9" height="2" rx="0" ry="0" style="stroke-width:2;fill:black;"/><rect x="221" y="41" width="9" height="2" rx="0" ry="0" style="stroke-width:2;fill:black;"/><rect x="221" y="61" width="9" height="2" rx="0" ry="0" style="stroke-width:2;fill:black;"/><rect x="221" y="85" width="9" height="2" rx="0" ry="0" style="stroke-width:2;fill:black;"/><rect x="221" y="89" width="9" height="2" rx="0" ry="0" style="stroke-width:2;fill:black;"/><rect x="221" y="101" width="9" height="2" rx="0" ry="0" style="stroke-width:2;fill:black;"/><rect x="221" y="109" width="9" height="2" rx="0" ry="0" style="stroke-width:2;fill:black;"/><rect x="221" y="113" width="9" height="2" rx="0" ry="0" style="stroke-width:2;fill:black;"/><rect x="221" y="145" width="9" height="2" rx="0" ry="0" style="stroke-width:2;fill:black;"/><rect x="221" y="173" width="9" height="2" rx="0" ry="0" style="stroke-width:2;fill:black;"/><rect x="221" y="181" width="9" height="2" rx="0" ry="0" style="stroke-width:2;fill:black;"/><rect x="221" y="193" width="9" height="2" rx="0" ry="0" style="stroke-width:2;fill:black;"/><rect x="231" y="9" width="9" height="2" rx="0" ry="0" style="stroke-width:2;fill:black;"/><rect x="231" y="21" width="9" height="2" rx="0" ry="0" style="stroke-width:2;fill:black;"/><rect x="231" y="29" width="9" height="2" rx="0" ry="0" style="stroke-width:2;fill:black;"/><rect x="231" y="65" width="9" height="2" rx="0" ry="0" style="stroke-width:2;fill:black;"/><rect x="231" y="81" width="9" height="2" rx="0" ry="0" style="stroke-width:2;fill:black;"/><rect x="231" y="101" width="9" height="2" rx="0" ry="0" style="stroke-width:2;fill:black;"/><rect x="231" y="113" width="9" height="2" rx="0" ry="0" style="stroke-width:2;fill:black;"/><rect x="231" y="125" width="9" height="2" rx="0" ry="0" style="stroke-width:2;fill:black;"/><rect x="231" y="141" width="9" height="2" rx="0" ry="0" style="stroke-width:2;fill:black;"/><rect x="231" y="161" width="9" height="2" rx="0" ry="0" style="stroke-width:2;fill:black;"/><rect x="231" y="185" width="9" height="2" rx="0" ry="0" style="stroke-width:2;fill:black;"/><rect x="241" y="13" width="9" height="2" rx="0" ry="0" style="stroke-width:2;fill:black;"/><rect x="241" y="21" width="9" height="2" rx="0" ry="0" style="stroke-width:2;fill:black;"/><rect x="241" y="33" width="9" height="2" rx="0" ry="0" style="stroke-width:2;fill:black;"/><rect x="241" y="45" width="9" height="2" rx="0" ry="0" style="stroke-width:2;fill:black;"/><rect x="241" y="49" width="9" height="2" rx="0" ry="0" style="stroke-width:2;fill:black;"/><rect x="241" y="105" width="9" height="2" rx="0" ry="0" style="stroke-width:2;fill:black;"/><rect x="241" y="109" width="9" height="2" rx="0" ry="0" style="stroke-width:2;fill:black;"/><rect x="241" y="129" width="9" height="2" rx="0" ry="0" style="stroke-width:2;fill:black;"/><rect x="241" y="145" width="9" height="2" rx="0" ry="0" style="stroke-width:2;fill:black;"/><rect x="241" y="153" width="9" height="2" rx="0" ry="0" style="stroke-width:2;fill:black;"/><rect x="241" y="181" width="9" height="2" rx="0" ry="0" style="stroke-width:2;fill:black;"/><rect x="241" y="189" width="9" height="2" rx="0" ry="0" style="stroke-width:2;fill:black;"/><rect x="251" y="5" width="9" height="2" rx="0" ry="0" style="stroke-width:2;fill:black;"/><rect x="251" y="29" width="9" height="2" rx="0" ry="0" style="stroke-width:2;fill:black;"/><rect x="251" y="41" width="9" height="2" rx="0" ry="0" style="stroke-width:2;fill:black;"/><rect x="251" y="65" width="9" height="2" rx="0" ry="0" style="stroke-width:2;fill:black;"/><rect x="251" y="73" width="9" height="2" rx="0" ry="0" style="stroke-width:2;fill:black;"/><rect x="251" y="85" width="9" height="2" rx="0" ry="0" style="stroke-width:2;fill:black;"/><rect x="251" y="125" width="9" height="2" rx="0" ry="0" style="stroke-width:2;fill:black;"/><rect x="251" y="145" width="9" height="2" rx="0" ry="0" style="stroke-width:2;fill:black;"/><rect x="251" y="149" width="9" height="2" rx="0" ry="0" style="stroke-width:2;fill:black;"/><rect x="251" y="181" width="9" height="2" rx="0" ry="0" style="stroke-width:2;fill:black;"/><rect x="261" y="33" width="9" height="2" rx="0" ry="0" style="stroke-width:2;fill:black;"/><rect x="261" y="41" width="9" height="2" rx="0" ry="0" style="stroke-width:2;fill:black;"/><rect x="261" y="45" width="9" height="2" rx="0" ry="0" style="stroke-width:2;fill:black;"/><rect x="261" y="69" width="9" height="2" rx="0" ry="0" style="stroke-width:2;fill:black;"/><rect x="261" y="81" width="9" height="2" rx="0" ry="0" style="stroke-width:2;fill:black;"/><rect x="261" y="89" width="9" height="2" rx="0" ry="0" style="stroke-width:2;fill:black;"/><rect x="261" y="113" width="9" height="2" rx="0" ry="0" style="stroke-width:2;fill:black;"/><rect x="261" y="125" width="9" height="2" rx="0" ry="0" style="stroke-width:2;fill:black;"/><rect x="261" y="141" width="9" height="2" rx="0" ry="0" style="stroke-width:2;fill:black;"/><rect x="261" y="149" width="9" height="2" rx="0" ry="0" style="stroke-width:2;fill:black;"/><rect x="261" y="165" width="9" height="2" rx="0" ry="0" style="stroke-width:2;fill:black;"/><rect x="271" y="9" width="9" height="2" rx="0" ry="0" style="stroke-width:2;fill:black;"/><rect x="271" y="13" width="9" height="2" rx="0" ry="0" style="stroke-width:2;fill:black;"/><rect x="271" y="21" width="9" height="2" rx="0" ry="0" style="stroke-width:2;fill:black;"/><rect x="271" y="25" width="9" height="2" rx="0" ry="0" style="stroke-width:2;fill:black;"/><rect x="271" y="49" width="9" height="2" rx="0" ry="0" style="stroke-width:2;fill:black;"/><rect x="271" y="105" width="9" height="2" rx="0" ry="0" style="stroke-width:2;fill:black;"/><rect x="271" y="109" width="9" height="2" rx="0" ry="0" style="stroke-width:2;fill:black;"/><rect x="271" y="121" width="9" height="2" rx="0" ry="0" style="stroke-width:2;fill:black;"/><rect x="271" y="133" width="9" height="2" rx="0" ry="0" style="stroke-width:2;fill:black;"/><rect x="271" y="145" width="9" height="2" rx="0" ry="0" style="stroke-width:2;fill:black;"/><rect x="271" y="153" width="9" height="2" rx="0" ry="0" style="stroke-width:2;fill:black;"/><rect x="271" y="165" width="9" height="2" rx="0" ry="0" style="stroke-width:2;fill:black;"/><rect x="271" y="169" width="9" height="2" rx="0" ry="0" style="stroke-width:2;fill:black;"/><rect x="271" y="193" width="9" height="2" rx="0" ry="0" style="stroke-width:2;fill:black;"/><rect x="281" y="1" width="9" height="2" rx="0" ry="0" style="stroke-width:2;fill:black;"/><rect x="281" y="25" width="9" height="2" rx="0" ry="0" style="stroke-width:2;fill:black;"/><rect x="281" y="29" width="9" height="2" rx="0" ry="0" style="stroke-width:2;fill:black;"/><rect x="281" y="49" width="9" height="2" rx="0" ry="0" style="stroke-width:2;fill:black;"/><rect x="281" y="53" width="9" height="2" rx="0" ry="0" style="stroke-width:2;fill:black;"/><rect x="281" y="85" width="9" height="2" rx="0" ry="0" style="stroke-width:2;fill:black;"/><rect x="281" y="89" width="9" height="2" rx="0" ry="0" style="stroke-width:2;fill:black;"/><rect x="281" y="121" width="9" height="2" rx="0" ry="0" style="stroke-width:2;fill:black;"/><rect x="281" y="133" width="9" height="2" rx="0" ry="0" style="stroke-width:2;fill:black;"/><rect x="281" y="173" width="9" height="2" rx="0" ry="0" style="stroke-width:2;fill:black;"/><rect x="291" y="5" width="9" height="2" rx="0" ry="0" style="stroke-width:2;fill:black;"/><rect x="291" y="21" width="9" height="2" rx="0" ry="0" style="stroke-width:2;fill:black;"/><rect x="291" y="29" width="9" height="2" rx="0" ry="0" style="stroke-width:2;fill:black;"/><rect x="291" y="33" width="9" height="2" rx="0" ry="0" style="stroke-width:2;fill:black;"/><rect x="291" y="41" width="9" height="2" rx="0" ry="0" style="stroke-width:2;fill:black;"/><rect x="291" y="45" width="9" height="2" rx="0" ry="0" style="stroke-width:2;fill:black;"/><rect x="291" y="89" width="9" height="2" rx="0" ry="0" style="stroke-width:2;fill:black;"/><rect x="291" y="105" width="9" height="2" rx="0" ry="0" style="stroke-width:2;fill:black;"/><rect x="291" y="129" width="9" height="2" rx="0" ry="0" style="stroke-width:2;fill:black;"/><rect x="291" y="141" width="9" height="2" rx="0" ry="0" style="stroke-width:2;fill:black;"/><rect x="291" y="161" width="9" height="2" rx="0" ry="0" style="stroke-width:2;fill:black;"/><rect x="291" y="165" width="9" height="2" rx="0" ry="0" style="stroke-width:2;fill:black;"/><rect x="291" y="173" width="9" height="2" rx="0" ry="0" style="stroke-width:2;fill:black;"/><rect x="291" y="185" width="9" height="2" rx="0" ry="0" style="stroke-width:2;fill:black;"/><rect x="291" y="189" width="9" height="2" rx="0" ry="0" style="stroke-width:2;fill:black;"/></svg>